<?xml version="1.0" standalone="no"?>
<!DOCTYPE svg PUBLIC "-//W3C//DTD SVG 20010904//EN"
 "http://www.w3.org/TR/2001/REC-SVG-20010904/DTD/svg10.dtd">
<svg version="1.0" xmlns="http://www.w3.org/2000/svg"
 width="160.000000pt" height="160.000000pt" viewBox="0 0 160.000000 160.000000"
 preserveAspectRatio="xMidYMid meet">
<metadata>
Created by potrace 1.11, written by Peter Selinger 2001-2013
</metadata>
<g transform="translate(0.000000,160.000000) scale(0.100000,-0.100000)"
fill="#000000" stroke="none">
<path d="M1161 1519 c-68 -13 -125 -46 -174 -98 l-44 -47 -53 38 c-184 132
-429 111 -590 -51 -94 -93 -149 -238 -150 -388 l0 -63 -45 0 c-34 0 -47 -5
-55 -19 -16 -30 -14 -787 2 -798 7 -4 260 -8 561 -9 l548 -1 30 -29 30 -29 75
76 74 76 0 311 c0 302 1 311 20 317 12 4 20 15 20 29 0 12 21 47 47 77 25 30
60 83 77 119 26 55 31 77 31 145 0 69 -4 89 -32 147 -38 80 -97 142 -167 173
-60 27 -143 37 -205 24z m147 -115 c73 -77 17 -194 -94 -194 -54 0 -104 53
-104 109 0 68 26 103 90 125 31 10 76 -6 108 -40z m-1024 -150 c-35 -69 -49
-110 -60 -184 -23 -137 -23 -140 -34 -140 -16 0 -12 149 5 215 20 74 60 149
98 181 16 14 31 23 33 21 2 -2 -17 -43 -42 -93z m464 51 c72 -33 132 -98 132
-143 0 -18 11 -67 25 -108 14 -41 25 -90 25 -109 l0 -35 -310 0 -310 0 0 23
c1 46 21 164 37 212 21 63 101 146 163 168 72 25 175 22 238 -8z m-588 -446
l75 -17 -65 -1 c-44 -1 -73 4 -88 15 -23 16 -32 41 -9 27 6 -4 46 -15 87 -24z
m-22 -116 c-10 -2 -26 -2 -35 0 -10 3 -2 5 17 5 19 0 27 -2 18 -5z m991 -90
c0 -25 -1 -25 -8 -8 -5 11 -7 23 -4 28 8 14 13 7 12 -20z m-991 -170 c-10 -2
-26 -2 -35 0 -10 3 -2 5 17 5 19 0 27 -2 18 -5z m992 -109 c0 -8 -5 -12 -10
-9 -6 4 -8 11 -5 16 9 14 15 11 15 -7z m0 -180 c0 -8 -5 -12 -10 -9 -6 4 -8
11 -5 16 9 14 15 11 15 -7z"/>
</g>
</svg>
