<?xml version="1.0" standalone="no"?>
<!DOCTYPE svg PUBLIC "-//W3C//DTD SVG 20010904//EN"
 "http://www.w3.org/TR/2001/REC-SVG-20010904/DTD/svg10.dtd">
<svg version="1.0" xmlns="http://www.w3.org/2000/svg"
 width="700.000000pt" height="700.000000pt" viewBox="0 0 700.000000 700.000000"
 preserveAspectRatio="xMidYMid meet">
<metadata>
Created by potrace 1.11, written by Peter Selinger 2001-2013
</metadata>
<g transform="translate(0.000000,700.000000) scale(0.100000,-0.100000)"
fill="#000000" stroke="none">
<path d="M3329 6906 c-2 -2 -49 -6 -104 -10 -55 -3 -111 -8 -124 -10 -13 -3
-47 -8 -75 -11 -28 -2 -76 -9 -106 -15 -30 -6 -66 -13 -80 -16 -14 -2 -45 -9
-70 -14 -25 -6 -54 -12 -65 -14 -11 -1 -27 -6 -35 -9 -8 -3 -71 -22 -140 -41
-69 -20 -129 -38 -135 -40 -16 -5 -48 -17 -70 -26 -11 -4 -47 -18 -80 -31
-134 -50 -340 -151 -470 -229 -38 -23 -83 -49 -98 -59 -16 -9 -58 -37 -95 -63
-37 -26 -75 -53 -86 -60 -10 -7 -35 -26 -55 -41 -20 -16 -49 -38 -65 -50 -30
-23 -42 -34 -132 -112 -114 -100 -340 -335 -383 -399 -8 -11 -18 -23 -21 -26
-3 -3 -19 -23 -36 -45 -16 -22 -33 -45 -39 -51 -5 -6 -17 -22 -25 -34 -8 -12
-21 -28 -28 -36 -6 -7 -12 -17 -12 -22 0 -6 -4 -12 -8 -14 -11 -4 -82 -115
-82 -128 0 -6 -4 -10 -8 -10 -5 0 -16 -15 -25 -32 -9 -18 -28 -53 -43 -78 -29
-50 -154 -296 -154 -304 0 -3 -11 -29 -24 -58 -40 -89 -128 -342 -140 -403 -3
-11 -16 -65 -30 -120 -13 -55 -27 -113 -30 -130 -3 -16 -7 -42 -10 -57 -11
-51 -16 -83 -22 -138 -3 -30 -8 -58 -10 -61 -23 -40 -23 -767 1 -809 1 -3 6
-34 9 -70 16 -150 129 -616 157 -645 5 -5 9 -19 9 -30 0 -12 3 -25 7 -28 3 -4
14 -28 24 -54 9 -27 25 -66 35 -88 9 -22 18 -45 20 -51 4 -23 146 -299 157
-306 7 -4 8 -8 2 -8 -7 0 -7 -3 0 -8 6 -4 16 -17 23 -29 25 -46 37 -67 44 -77
25 -35 98 -149 98 -153 0 -2 9 -13 20 -25 11 -12 32 -40 47 -62 15 -23 36 -48
45 -57 10 -9 18 -21 18 -28 0 -6 5 -11 10 -11 6 0 10 -4 10 -9 0 -5 12 -22 28
-38 15 -17 45 -51 67 -77 74 -87 275 -284 352 -346 10 -8 41 -33 68 -55 28
-22 55 -44 61 -50 6 -5 37 -28 69 -50 31 -22 70 -50 85 -62 15 -13 33 -23 39
-23 6 0 11 -4 11 -10 0 -5 4 -10 10 -10 5 0 40 -20 77 -44 76 -48 71 -46 252
-138 72 -37 131 -64 131 -60 0 4 4 1 9 -6 4 -7 14 -14 22 -16 8 -1 36 -12 63
-24 27 -12 50 -22 52 -22 1 0 15 -5 31 -12 15 -6 33 -12 38 -14 27 -7 172 -57
187 -65 10 -5 27 -9 39 -9 11 0 28 -4 38 -10 10 -5 29 -11 42 -13 13 -3 42
-10 65 -16 36 -10 99 -23 174 -37 14 -3 50 -9 80 -15 61 -11 109 -18 173 -24
23 -2 42 -4 42 -5 0 -6 161 -12 340 -13 220 0 283 4 475 27 71 9 297 55 375
76 44 12 94 25 110 30 99 26 282 91 385 137 175 78 450 225 458 245 2 4 8 8
13 8 15 0 179 111 179 121 0 5 6 9 13 9 19 0 200 147 299 242 26 25 48 44 48
42 0 -3 79 79 198 203 17 19 32 37 32 40 0 3 8 13 18 22 53 47 273 358 355
501 64 111 207 410 207 433 0 7 4 17 9 23 5 5 21 43 35 84 15 41 29 82 33 90
9 21 13 41 16 67 1 13 5 23 8 23 4 0 9 12 12 27 2 16 14 64 26 108 30 113 73
342 86 455 25 235 26 569 0 770 -15 119 -30 214 -52 320 -14 69 -25 131 -26
138 0 6 -4 12 -9 12 -4 0 -8 15 -8 34 0 19 -4 38 -10 41 -5 3 -10 17 -10 31 0
13 -4 32 -9 42 -5 9 -16 42 -26 72 -64 202 -224 548 -328 708 -26 40 -47 77
-47 81 0 5 -3 11 -7 13 -5 2 -26 30 -48 63 -22 33 -42 62 -45 65 -3 3 -25 32
-50 65 -63 83 -71 94 -102 127 -16 16 -28 31 -28 34 0 17 -275 289 -389 384
-23 19 -51 42 -61 50 -10 9 -46 36 -79 60 -34 25 -61 48 -61 52 0 5 -6 8 -12
8 -7 0 -25 10 -40 23 -15 12 -57 40 -94 62 -36 22 -71 45 -78 51 -6 5 -26 17
-43 25 -18 7 -33 18 -33 22 0 5 -4 5 -10 2 -5 -3 -10 -2 -10 2 0 5 -15 16 -32
24 -18 9 -64 32 -103 51 -64 32 -120 59 -230 108 -67 31 -185 70 -185 62 0 -4
-4 -2 -8 5 -8 13 -312 102 -360 106 -18 1 -32 6 -32 11 0 5 -2 7 -5 4 -4 -3
-25 -1 -48 4 -66 15 -140 28 -187 33 -14 2 -54 6 -90 10 -36 4 -76 9 -90 11
-32 6 -465 15 -471 10z m-566 -2407 c-1 -24 -2 -55 -2 -69 -1 -14 0 -74 2
-133 1 -60 -1 -111 -5 -114 -5 -2 -5 -9 -2 -15 10 -17 11 -112 1 -125 -6 -8
-6 -13 0 -13 6 0 8 -19 6 -42 -2 -24 -4 -47 -4 -53 6 -73 4 -325 -2 -325 -4 0
-4 -8 1 -17 4 -10 7 -43 5 -73 -4 -65 -4 -49 0 -183 1 -60 -1 -111 -5 -114 -5
-2 -5 -9 -2 -15 10 -17 11 -112 1 -125 -5 -7 -5 -13 -1 -13 15 0 6 -255 -12
-332 -3 -13 -9 -39 -13 -58 -16 -74 -78 -186 -136 -245 -29 -30 -105 -80 -145
-97 -113 -47 -249 -55 -415 -24 -74 14 -193 85 -268 161 -29 29 -97 128 -97
140 0 10 28 35 39 35 6 0 11 5 11 10 0 6 5 10 12 10 6 0 20 7 30 17 10 9 19
14 21 12 49 -78 106 -144 158 -184 27 -21 104 -54 147 -64 70 -15 211 -11 269
8 86 29 149 85 188 166 59 126 60 138 60 1108 l0 812 55 5 c30 3 66 3 80 -1
21 -5 24 -10 23 -50z m867 44 c9 -11 41 -93 46 -118 2 -11 8 -29 13 -40 5 -11
26 -67 46 -125 20 -58 41 -114 45 -125 5 -11 18 -49 30 -85 12 -36 25 -74 30
-85 9 -21 106 -291 120 -335 5 -14 27 -77 50 -140 23 -63 42 -121 43 -127 0
-7 4 -13 9 -13 4 0 8 -9 8 -20 0 -11 4 -28 10 -38 12 -23 122 -333 123 -349 0
-7 4 -13 9 -13 4 0 8 -8 8 -19 0 -10 8 -36 17 -57 9 -22 17 -41 18 -44 6 -29
19 -50 25 -44 5 5 29 70 54 144 48 144 170 495 180 520 3 8 21 60 40 115 59
169 77 219 93 253 8 18 16 40 18 50 4 17 13 43 100 287 26 72 52 148 59 170
13 39 39 109 56 150 5 11 14 37 20 58 11 36 13 37 61 38 63 0 157 0 167 0 5
-1 8 -2080 3 -2197 -1 -19 -7 -21 -73 -20 l-73 1 0 875 c1 481 4 941 9 1023 4
82 3 147 -1 147 -5 0 -19 -33 -32 -72 -13 -40 -29 -86 -36 -103 -18 -42 -28
-68 -31 -82 -2 -13 -43 -126 -69 -193 -8 -19 -19 -53 -26 -75 -6 -22 -17 -53
-25 -70 -7 -16 -19 -50 -28 -75 -8 -25 -29 -83 -46 -130 -17 -47 -46 -128 -64
-180 -19 -52 -41 -113 -49 -135 -8 -22 -32 -87 -52 -145 -20 -58 -40 -114 -45
-125 -19 -45 -100 -283 -100 -294 0 -6 -4 -11 -8 -11 -5 0 -9 -6 -9 -13 0 -7
-7 -33 -17 -58 l-17 -44 -65 0 c-52 0 -67 4 -75 18 -10 17 -107 279 -112 302
-1 6 -5 13 -9 16 -5 3 -9 17 -10 32 -1 15 -5 27 -9 27 -3 0 -6 6 -6 13 -1 6
-26 80 -56 162 -30 83 -76 209 -101 280 -26 72 -51 138 -56 147 -6 10 -10 26
-10 37 0 11 -4 21 -9 23 -6 2 -11 15 -13 30 -2 15 -7 30 -11 34 -4 4 -7 18 -7
31 0 14 -4 21 -10 18 -5 -3 -10 2 -10 12 0 10 -16 61 -36 113 -19 52 -37 102
-39 110 -2 8 -15 47 -30 85 -14 39 -42 117 -62 175 -20 58 -41 108 -46 111 -5
4 -7 11 -3 17 3 6 2 13 -4 17 -5 3 -10 3 -11 -2 -3 -41 -3 -83 1 -83 10 0 13
-272 14 -1115 l1 -850 -70 0 -70 0 -3 1107 -2 1107 32 3 c55 5 181 -1 188 -9z"/>
</g>
</svg>
